<svg width="193" height="30" viewBox="0 0 193 30" fill="none" xmlns="http://www.w3.org/2000/svg">
<path d="M25.833 30H4.16699C1.86569 30 0 28.1343 0 25.833V4.16699C0 1.86569 1.86569 0 4.16699 0H25.833C28.1343 0 30 1.86569 30 4.16699V25.833C30 28.1343 28.1343 30 25.833 30Z" fill="#546FEA"/>
<path d="M8.46132 11.6655C8.20482 5.07397 15.0127 0.806685 20.8806 3.76284C26.0048 6.38368 27.1583 13.3177 23.1848 17.4675C22.0857 18.6152 20.6757 19.4535 19.1367 19.8375C19.8718 19.5753 20.5739 19.2242 21.2173 18.7843C27.7458 14.2706 25.3528 4.1354 17.3298 3.46765C12.5567 3.13808 8.63757 6.93823 8.46132 11.6655Z" fill="white"/>
<path d="M23.6663 13.5841C23.2909 14.8938 22.5816 15.8954 21.8522 16.6334C21.4366 17.0546 20.9738 17.4243 20.478 17.741C19.9822 18.0577 19.4506 18.3214 18.896 18.5277C18.7112 18.5965 18.5478 18.7126 18.4232 18.8644L14.2548 23.9055C14.0298 24.1778 13.6214 24.2093 13.3563 23.97C13.1084 23.745 13.0926 23.3581 13.3076 23.1002L14.1559 22.0742C14.282 21.9223 14.335 21.7332 14.3164 21.5512C14.2992 21.3692 14.2118 21.193 14.0599 21.0669C13.7547 20.8147 13.3047 20.8577 13.0525 21.1629L11.1295 23.4885C10.916 23.7465 10.5363 23.8095 10.264 23.6146C10.1064 23.5029 10.0161 23.3338 10.0004 23.1575C9.9846 22.997 10.0304 22.8294 10.1422 22.6933L10.5091 22.249C10.618 22.1172 10.6624 21.9553 10.6481 21.7977C10.6337 21.64 10.5578 21.4896 10.4274 21.3807C10.1652 21.1643 9.77682 21.2001 9.56045 21.4624L8.42127 22.8408C8.18053 23.1317 7.74492 23.1891 7.4526 22.9483C7.30644 22.8294 7.22332 22.6603 7.20613 22.4869C7.19037 22.3135 7.24052 22.1344 7.35946 21.9897L9.67222 19.194C9.78399 19.0593 9.82984 18.8917 9.81408 18.7297C9.79832 18.5678 9.72237 18.4131 9.58767 18.3013C9.31828 18.0778 8.91849 18.1164 8.69495 18.3858L7.65464 19.6454C7.42967 19.9177 7.02988 19.9836 6.74042 19.7787C6.5742 19.6597 6.4782 19.482 6.46243 19.2958C6.44524 19.1252 6.49539 18.949 6.61289 18.8057L8.29803 16.7666C8.39977 16.6434 8.44276 16.4886 8.42843 16.341C8.4141 16.1934 8.34389 16.0502 8.22065 15.9484C7.97275 15.7435 7.60592 15.7779 7.40101 16.0258L7.29211 16.1576C7.05138 16.4485 6.61576 16.5058 6.32344 16.2665C6.17728 16.1462 6.09417 15.9785 6.07697 15.8037C6.06121 15.6303 6.10993 15.4512 6.2303 15.3065L9.30395 11.588C9.52749 11.3172 9.67795 10.9919 9.741 10.6465C9.741 10.6451 9.74243 10.6437 9.74243 10.6422C10.1222 8.53296 11.3631 6.66298 13.1915 5.54528C14.2103 4.92339 15.3538 4.55799 16.5403 4.515C18.9706 4.42616 20.7245 5.7201 21.279 6.16718C21.7777 6.56697 23.2063 7.81792 23.7422 9.98739C23.844 10.4101 24.1607 11.8617 23.6663 13.5841Z" fill="white"/>
<path d="M11.0247 26.8029C10.751 26.5765 10.7123 26.171 10.9387 25.8973L11.7297 24.9415C11.9561 24.6678 12.3616 24.6291 12.6353 24.8555C12.909 25.0819 12.9477 25.4875 12.7213 25.7612L11.9303 26.7169C11.7039 26.9906 11.2984 27.0293 11.0247 26.8029Z" fill="white"/>
<path d="M5.12686 25.8485C4.85317 25.6221 4.81448 25.2166 5.04089 24.9429L5.83187 23.9872C6.05828 23.7135 6.4638 23.6748 6.73749 23.9012C7.01118 24.1276 7.04987 24.5331 6.82346 24.8068L6.03248 25.7626C5.80607 26.0363 5.40055 26.0749 5.12686 25.8485Z" fill="white"/>
<path d="M9.04302 25.7383C9.39598 25.7383 9.68212 25.4522 9.68212 25.0992C9.68212 24.7462 9.39598 24.4601 9.04302 24.4601C8.69006 24.4601 8.40393 24.7462 8.40393 25.0992C8.40393 25.4522 8.69006 25.7383 9.04302 25.7383Z" fill="white"/>
<path d="M5.58966 21.9022C5.94262 21.9022 6.22874 21.6161 6.22874 21.2632C6.22874 20.9102 5.94262 20.6241 5.58966 20.6241C5.2367 20.6241 4.95056 20.9102 4.95056 21.2632C4.95056 21.6161 5.2367 21.9022 5.58966 21.9022Z" fill="white"/>
<path d="M5.07219 18.4402C5.42515 18.4402 5.71128 18.1541 5.71128 17.8012C5.71128 17.4482 5.42515 17.1621 5.07219 17.1621C4.71923 17.1621 4.43311 17.4482 4.43311 17.8012C4.43311 18.1541 4.71923 18.4402 5.07219 18.4402Z" fill="white"/>
<path d="M16.0459 13.1801L16.5374 17.585L19.4406 9.02604L11.7815 13.6573L16.0459 13.1801Z" fill="#546FEA"/>
<path d="M86.9859 23.0559C85.1616 23.0559 83.8982 22.5103 83.1958 21.4209C82.4934 20.3314 82.1422 18.9044 82.1422 17.1432V0.784332H87.5519V17.3307C87.5519 17.8763 87.6508 18.2429 87.8503 18.4321C88.0498 18.6214 88.2441 18.7151 88.4317 18.7151C88.6414 18.7151 88.8289 18.6947 88.9977 18.6521L89.6268 22.616C89.3336 22.7422 88.967 22.8462 88.5254 22.9315C88.0873 23.0133 87.5724 23.0559 86.9859 23.0559Z" fill="black"/>
<path d="M98.4977 23.0559C97.1559 23.0559 95.8909 22.7303 94.7076 22.0807C93.5227 21.4311 92.5577 20.4917 91.8144 19.2659C91.0693 18.0383 90.6976 16.555 90.6976 14.8143C90.6976 13.0735 91.0693 11.5902 91.8144 10.3627C92.5577 9.13514 93.5227 8.19742 94.7076 7.54784C95.8926 6.89826 97.1559 6.57262 98.4977 6.57262C99.8395 6.57262 101.103 6.89826 102.288 7.54784C103.473 8.19742 104.438 9.13684 105.181 10.3627C105.926 11.5902 106.298 13.0735 106.298 14.8143C106.298 16.555 105.926 18.0383 105.181 19.2659C104.436 20.4934 103.471 21.4311 102.288 22.0807C101.103 22.7303 99.8395 23.0559 98.4977 23.0559ZM98.4977 18.7152C99.3161 18.7152 99.8975 18.364 100.244 17.6615C100.59 16.9591 100.762 16.0094 100.762 14.8143C100.762 13.6191 100.59 12.6712 100.244 11.967C99.8975 11.2646 99.3161 10.9134 98.4977 10.9134C97.6793 10.9134 97.098 11.2646 96.7519 11.967C96.4058 12.6695 96.2336 13.6191 96.2336 14.8143C96.2336 16.0094 96.4058 16.9591 96.7519 17.6615C97.098 18.364 97.6793 18.7152 98.4977 18.7152Z" fill="black"/>
<path d="M116.239 23.0559C114.016 23.0559 112.139 22.333 110.609 20.8856C109.078 19.4381 108.313 17.4143 108.313 14.8143C108.313 13.0735 108.707 11.5902 109.493 10.3627C110.279 9.13514 111.312 8.19742 112.591 7.54784C113.869 6.89826 115.254 6.57262 116.742 6.57262C117.685 6.57262 118.539 6.71924 119.306 7.01249C120.072 7.30574 120.749 7.7047 121.335 8.20765L118.819 11.667C118.21 11.164 117.624 10.9117 117.058 10.9117C116.052 10.9117 115.264 11.2629 114.698 11.9653C114.132 12.6678 113.849 13.6174 113.849 14.8126C113.849 16.0077 114.142 16.9574 114.73 17.6598C115.317 18.3622 116.031 18.7135 116.87 18.7135C117.31 18.7135 117.745 18.6197 118.176 18.4304C118.606 18.2412 119.01 18.0008 119.386 17.7076L121.463 21.23C120.665 21.9222 119.801 22.3995 118.868 22.6621C117.932 22.9247 117.056 23.0559 116.239 23.0559Z" fill="black"/>
<path d="M127.751 23.0559C126.283 23.0559 125.129 22.5734 124.292 21.6084C123.453 20.6435 123.033 19.5114 123.033 18.2105C123.033 16.5755 123.705 15.29 125.047 14.3574C126.389 13.4248 128.569 12.8008 131.589 12.4853C131.463 11.3959 130.729 10.8503 129.388 10.8503C128.382 10.8503 127.06 11.2902 125.424 12.1716L123.536 8.64923C124.626 7.97749 125.749 7.4643 126.902 7.10797C128.054 6.75164 129.239 6.57262 130.457 6.57262C132.511 6.57262 134.115 7.154 135.27 8.31847C136.422 9.48295 137 11.3533 137 13.9328V22.6774H132.596L132.22 21.1669H132.093C131.464 21.7329 130.792 22.1898 130.08 22.5359C129.365 22.882 128.59 23.0559 127.751 23.0559ZM129.638 18.9027C130.078 18.9027 130.441 18.8038 130.723 18.6044C131.006 18.4049 131.294 18.1474 131.587 17.8337V15.694C130.286 15.8833 129.396 16.1663 128.914 16.5431C128.431 16.9199 128.191 17.3291 128.191 17.7706C128.191 18.5259 128.673 18.9027 129.638 18.9027Z" fill="black"/>
<path d="M145.366 23.0559C143.542 23.0559 142.279 22.5103 141.576 21.4209C140.874 20.3314 140.523 18.9044 140.523 17.1432V0.784332H145.932V17.3307C145.932 17.8763 146.031 18.2429 146.231 18.4321C146.43 18.6214 146.625 18.7151 146.812 18.7151C147.022 18.7151 147.209 18.6947 147.378 18.6521L148.007 22.616C147.714 22.7422 147.348 22.8462 146.906 22.9315C146.466 23.0133 145.953 23.0559 145.366 23.0559Z" fill="black"/>
<path d="M154.738 23.0559C152.914 23.0559 151.651 22.5103 150.948 21.4209C150.246 20.3314 149.895 18.9044 149.895 17.1432V0.784332H155.304V17.3307C155.304 17.8763 155.403 18.2429 155.603 18.4321C155.802 18.6214 155.997 18.7151 156.184 18.7151C156.394 18.7151 156.583 18.6947 156.75 18.6521L157.379 22.616C157.086 22.7422 156.72 22.8462 156.278 22.9315C155.84 23.0133 155.327 23.0559 154.738 23.0559Z" fill="black"/>
<path d="M164.678 6.60159H159.268V22.6774H164.678V6.60159Z" fill="black"/>
<path d="M173.17 23.056C172.164 23.056 171.099 22.8565 169.977 22.4575C168.855 22.0603 167.885 21.5249 167.067 20.8532L169.457 17.5183C170.882 18.5669 172.163 19.0903 173.295 19.0903C174.343 19.0903 174.867 18.7766 174.867 18.1457C174.867 17.7263 174.563 17.3956 173.955 17.1552C173.346 16.9148 172.644 16.6369 171.847 16.3215C170.925 15.9651 170.033 15.4247 169.174 14.7018C168.313 13.9789 167.885 12.9662 167.885 11.667C167.885 10.1155 168.461 8.87772 169.616 7.95535C170.768 7.03298 172.268 6.57094 174.113 6.57094C175.414 6.57094 176.529 6.78576 177.463 7.2154C178.396 7.64505 179.209 8.12243 179.901 8.64584L177.511 11.8545C176.294 10.9731 175.225 10.5332 174.302 10.5332C173.38 10.5332 172.918 10.8265 172.918 11.4147C172.918 11.8341 173.211 12.1495 173.8 12.3575C174.386 12.5672 175.078 12.8195 175.876 13.1128C176.821 13.4487 177.726 13.9618 178.597 14.654C179.467 15.3462 179.903 16.405 179.903 17.8303C179.903 19.2983 179.332 20.5361 178.188 21.542C177.046 22.5513 175.373 23.056 173.17 23.056Z" fill="black"/>
<path d="M188.396 23.0558C186.339 23.0558 184.861 22.4693 183.959 21.2946C183.057 20.1199 182.607 18.5684 182.607 16.6384V11.1656H180.531V7.13851L182.921 6.94927L183.55 2.86083H188.017V6.94927H191.602V11.1639H188.017V16.5429C188.017 17.4022 188.206 18.0007 188.583 18.3365C188.96 18.6724 189.401 18.8395 189.904 18.8395C190.157 18.8395 190.402 18.8139 190.644 18.7611C190.885 18.7082 191.101 18.6502 191.289 18.5889L192.107 22.4898C191.688 22.6159 191.18 22.7421 190.581 22.8665C189.985 22.9927 189.255 23.0558 188.396 23.0558Z" fill="black"/>
<path d="M165.384 5.84301C165.268 6.45167 165.014 6.88473 164.62 7.43201C163.984 8.30664 163.226 9.13865 162.371 9.90758L161.943 10.2895L161.505 9.92122C160.816 9.34325 160.201 8.69367 159.676 7.99123C159.088 7.20526 158.663 6.6341 158.539 5.76118C158.411 4.85415 158.614 3.95906 159.11 3.24469C160.114 1.7972 161.787 1.75458 161.974 1.75458C163.295 1.75969 164.521 2.51839 165.098 3.68968C165.553 4.60864 165.449 5.50202 165.384 5.84301Z" fill="white"/>
<path d="M164.506 1.56513C164.059 0.659809 163.079 0.00340987 161.978 0C161.896 0 160.476 0.0204588 159.654 1.20368C159.045 2.08002 159.163 3.01944 159.197 3.25131C159.294 3.94181 159.616 4.38509 160.208 5.17789C160.569 5.66209 161.125 6.3202 161.93 6.99535C162.948 6.08321 163.638 5.23756 164.085 4.62379C164.419 4.16345 164.639 3.80201 164.734 3.29905C164.774 3.09616 164.893 2.34599 164.506 1.56513ZM161.974 3.91624C161.333 3.91624 160.815 3.39623 160.815 2.75688C160.815 2.11583 161.335 1.59752 161.974 1.59752C162.615 1.59752 163.134 2.11753 163.134 2.75688C163.134 3.39794 162.614 3.91624 161.974 3.91624Z" fill="#546FEA"/>
<path d="M162.781 2.757C162.781 3.20199 162.419 3.56343 161.974 3.56343C161.529 3.56343 161.168 3.20199 161.168 2.757C161.168 2.31201 161.529 1.95056 161.974 1.95056C162.419 1.95056 162.781 2.31201 162.781 2.757Z" fill="#546FEA"/>
<path d="M42.7963 29.9999C40.868 29.9999 39.2091 29.6862 37.8179 29.0588C36.4266 28.4314 35.7327 27.3539 35.7327 25.8297C35.7327 24.5066 36.517 23.4308 38.0872 22.6005V22.4658C37.6388 22.1521 37.2689 21.7719 36.9773 21.3218C36.6858 20.8734 36.5409 20.2903 36.5409 19.5725C36.5409 18.362 37.1683 17.3084 38.4248 16.4116V16.2769C37.8196 15.8728 37.2859 15.3017 36.8273 14.5617C36.367 13.8218 36.1385 12.9591 36.1385 11.9719C36.1385 9.88681 36.8784 8.34555 38.3583 7.34816C39.8382 6.35077 41.4971 5.85123 43.3367 5.85123C44.3239 5.85123 45.2207 5.98592 46.0271 6.2553H52.2825V10.4256H49.8615C49.928 10.6268 49.9911 10.8859 50.0457 11.1996C50.1019 11.5133 50.1292 11.839 50.1292 12.1748C50.1292 14.1474 49.4677 15.5711 48.1447 16.4457C46.8216 17.3203 45.219 17.7568 43.335 17.7568C42.7741 17.7568 42.1467 17.6784 41.4511 17.5215C41.1817 17.7687 41.047 18.0927 41.047 18.4967C41.047 19.1702 41.8313 19.5061 43.4015 19.5061H45.9231C48.0304 19.5061 49.6621 19.8487 50.8163 20.5324C51.9705 21.2161 52.5485 22.3311 52.5485 23.8792C52.5485 25.695 51.6739 27.1697 49.9246 28.3018C48.1771 29.4322 45.8004 29.9999 42.7963 29.9999ZM43.7374 26.4349C44.6785 26.4349 45.4645 26.2951 46.0919 26.0138C46.7193 25.7325 47.033 25.3574 47.033 24.8868C47.033 24.4384 46.837 24.1588 46.4448 24.0463C46.0527 23.9338 45.4969 23.8775 44.7808 23.8775H43.4697C42.7963 23.8775 42.2814 23.8605 41.9233 23.8264C41.5653 23.7923 41.2721 23.7428 41.0487 23.6746C40.6446 24.0787 40.4435 24.4811 40.4435 24.8851C40.4435 25.4239 40.7469 25.816 41.3522 26.0615C41.9557 26.3105 42.7519 26.4349 43.7374 26.4349ZM43.335 14.3265C44.5455 14.3265 45.1508 13.5422 45.1508 11.9719C45.1508 10.4477 44.5455 9.68563 43.335 9.68563C42.1245 9.68563 41.5193 10.4477 41.5193 11.9719C41.5176 13.5422 42.1245 14.3265 43.335 14.3265Z" fill="black"/>
<path d="M55.0381 23.0711V6.2553H59.7471L60.1512 8.30633H60.2859C60.9593 7.65675 61.6822 7.08389 62.4546 6.59117C63.2286 6.09844 64.1868 5.85123 65.3308 5.85123C67.4824 5.85123 69.0305 6.74802 69.9716 8.54162C70.6655 7.82384 71.4174 7.19642 72.2255 6.65766C73.0337 6.1189 74.0089 5.85123 75.1512 5.85123C76.9891 5.85123 78.3343 6.47353 79.1868 7.71813C80.0393 8.96273 80.4655 10.6268 80.4655 12.7119V23.0711H74.6807V13.4518C74.6807 12.376 74.546 11.6582 74.2766 11.3002C74.0072 10.9422 73.581 10.7614 72.9979 10.7614C72.2801 10.7614 71.4958 11.1877 70.6434 12.0401V23.0711H64.8585V13.4518C64.8585 12.376 64.7238 11.6582 64.4545 11.3002C64.1851 10.9422 63.7588 10.7614 63.1757 10.7614C62.458 10.7614 61.6737 11.1877 60.8212 12.0401V23.0711H55.0381Z" fill="black"/>
</svg>
